<svg xmlns="http://www.w3.org/2000/svg" viewBox="0 0 320 56" width="320" height="56" role="img" aria-label="ApplyToGerman">
  
  <clipPath id="lkb"><rect x="4" y="8" width="11" height="32" rx="2.5"/></clipPath>
  <g clip-path="url(#lkb)">
    <rect x="4" y="8"     width="11" height="10.67" fill="#1A1A1A"/>
    <rect x="4" y="18.67" width="11" height="10.67" fill="#D81E2C"/>
    <rect x="4" y="29.33" width="11" height="10.67" fill="#F4C430"/>
  </g>
  <rect x="4" y="8" width="11" height="32" rx="2.5" fill="none" stroke="#FFFFFF" stroke-opacity="0.28" stroke-width="0.8"/>
  <path d="M19 24 L27 17 L27 21 L39 21 L39 27 L27 27 L27 31 Z" fill="#FFFFFF" stroke-linejoin="round"/>
  <text x="50" y="28" font-family="Inter, Arial, sans-serif" font-size="22" font-weight="800" letter-spacing="-0.8" fill="#FFFFFF">Apply<tspan fill="#F4C430" font-weight="500">To</tspan><tspan fill="#FFFFFF">German</tspan></text>
  <g fill="#FFFFFF" fill-opacity="0.72">
  <path d="M51 0 581 1490H861L1401 0H1154L864 829Q830 930 789.5 1067.0Q749 1204 696 1396H742Q691 1202 650.5 1063.5Q610 925 579 829L298 0ZM338 393V583H1113V393Z" transform="translate(51.00,44.00) scale(0.00464,-0.00464)"/>
  <path d="M165 0V1490H393V196H1068V0Z" transform="translate(60.34,44.00) scale(0.00464,-0.00464)"/>
  <path d="M165 0V1490H501L826 635Q840 597 857.5 539.0Q875 481 894.0 413.0Q913 345 930.0 279.0Q947 213 960 160H912Q925 210 942.0 275.5Q959 341 978.0 409.0Q997 477 1015.0 537.0Q1033 597 1047 635L1367 1490H1705V0H1478V802Q1478 848 1479.0 912.0Q1480 976 1481.5 1047.5Q1483 1119 1484.5 1192.0Q1486 1265 1487 1332H1504Q1484 1259 1460.5 1181.5Q1437 1104 1414.5 1032.0Q1392 960 1371.5 900.5Q1351 841 1337 802L1032 0H837L528 802Q513 840 493.5 898.5Q474 957 451.0 1028.5Q428 1100 404.0 1177.5Q380 1255 356 1332H376Q378 1271 379.5 1199.5Q381 1128 382.5 1055.0Q384 982 385.5 916.5Q387 851 387 802V0Z" transform="translate(68.31,44.00) scale(0.00464,-0.00464)"/>
  <path d="M51 0 581 1490H861L1401 0H1154L864 829Q830 930 789.5 1067.0Q749 1204 696 1396H742Q691 1202 650.5 1063.5Q610 925 579 829L298 0ZM338 393V583H1113V393Z" transform="translate(79.58,44.00) scale(0.00464,-0.00464)"/>
  <path d="M165 0V1490H428L989 603Q1017 559 1052.0 498.0Q1087 437 1126.0 360.5Q1165 284 1203 194H1175Q1166 279 1161.5 362.5Q1157 446 1155.0 519.0Q1153 592 1153 642V1490H1384V0H1120L617 793Q577 858 538.5 924.0Q500 990 453.5 1076.5Q407 1163 340 1287H376Q381 1177 386.0 1081.5Q391 986 393.5 912.5Q396 839 396 795V0Z" transform="translate(88.91,44.00) scale(0.00464,-0.00464)"/>
  <path d="M600 0V593L51 1490H317L597 1015Q644 937 679.5 865.0Q715 793 753 687H680Q718 795 753.5 867.5Q789 940 833 1015L1110 1490H1375L828 593V0Z" transform="translate(98.70,44.00) scale(0.00464,-0.00464)"/>
  <path d="M51 0 581 1490H861L1401 0H1154L864 829Q830 930 789.5 1067.0Q749 1204 696 1396H742Q691 1202 650.5 1063.5Q610 925 579 829L298 0ZM338 393V583H1113V393Z" transform="translate(107.91,44.00) scale(0.00464,-0.00464)"/>
  <path d="M162 905 250 1490H487L322 905Z" transform="translate(117.25,44.00) scale(0.00464,-0.00464)"/>
  <path d="M649 0H281V200H637Q806 200 918.0 263.0Q1030 326 1086.0 448.5Q1142 571 1142 747Q1142 922 1086.5 1043.0Q1031 1164 921.5 1227.0Q812 1290 649 1290H273V1490H664Q884 1490 1041.0 1401.0Q1198 1312 1282.0 1145.5Q1366 979 1366 747Q1366 514 1281.5 347.0Q1197 180 1036.5 90.0Q876 0 649 0ZM393 1490V0H165V1490Z" transform="translate(122.48,44.00) scale(0.00464,-0.00464)"/>
  <path d="M51 0 581 1490H861L1401 0H1154L864 829Q830 930 789.5 1067.0Q749 1204 696 1396H742Q691 1202 650.5 1063.5Q610 925 579 829L298 0ZM338 393V583H1113V393Z" transform="translate(131.94,44.00) scale(0.00464,-0.00464)"/>
  <path d="M165 0V1490H1103V1294H393V850H1052V655H393V196H1109V0Z" transform="translate(146.41,44.00) scale(0.00464,-0.00464)"/>
  <path d="M791 -20Q589 -20 436.5 73.0Q284 166 198.5 337.5Q113 509 113 744Q113 982 199.5 1153.5Q286 1325 437.0 1417.5Q588 1510 781 1510Q901 1510 1005.5 1474.5Q1110 1439 1192.5 1373.5Q1275 1308 1328.5 1217.5Q1382 1127 1400 1019H1166Q1146 1084 1111.0 1136.5Q1076 1189 1027.5 1226.0Q979 1263 917.5 1282.5Q856 1302 783 1302Q657 1302 556.5 1238.0Q456 1174 397.5 1049.5Q339 925 339 745Q339 565 397.5 441.0Q456 317 558.0 252.5Q660 188 792 188Q912 188 1001.5 236.5Q1091 285 1140.5 374.5Q1190 464 1190 586L1249 576H825V764H1413V593Q1413 405 1332.5 267.5Q1252 130 1112.0 55.0Q972 -20 791 -20ZM778 1641Q692 1641 622.5 1679.5Q553 1718 511.5 1784.5Q470 1851 470 1933H616Q616 1867 662.0 1824.0Q708 1781 778 1781Q848 1781 894.0 1824.0Q940 1867 940 1933H1087Q1087 1851 1046.0 1785.0Q1005 1719 935.5 1680.0Q866 1641 778 1641Z" transform="translate(154.73,44.00) scale(0.00464,-0.00464)"/>
  <path d="M393 1490V0H165V1490ZM280 1661Q223 1661 182.5 1699.0Q142 1737 142 1791Q142 1846 182.5 1884.0Q223 1922 280 1922Q337 1922 378.0 1884.0Q419 1846 419 1791Q419 1737 378.0 1699.0Q337 1661 280 1661Z" transform="translate(164.44,44.00) scale(0.00464,-0.00464)"/>
  <path d="M90 1294V1490H1247V1294H784V0H555V1294Z" transform="translate(169.63,44.00) scale(0.00464,-0.00464)"/>
  <path d="M393 1490V0H165V1490ZM280 1661Q223 1661 182.5 1699.0Q142 1737 142 1791Q142 1846 182.5 1884.0Q223 1922 280 1922Q337 1922 378.0 1884.0Q419 1846 419 1791Q419 1737 378.0 1699.0Q337 1661 280 1661Z" transform="translate(178.43,44.00) scale(0.00464,-0.00464)"/>
  <path d="M165 0V1490H501L826 635Q840 597 857.5 539.0Q875 481 894.0 413.0Q913 345 930.0 279.0Q947 213 960 160H912Q925 210 942.0 275.5Q959 341 978.0 409.0Q997 477 1015.0 537.0Q1033 597 1047 635L1367 1490H1705V0H1478V802Q1478 848 1479.0 912.0Q1480 976 1481.5 1047.5Q1483 1119 1484.5 1192.0Q1486 1265 1487 1332H1504Q1484 1259 1460.5 1181.5Q1437 1104 1414.5 1032.0Q1392 960 1371.5 900.5Q1351 841 1337 802L1032 0H837L528 802Q513 840 493.5 898.5Q474 957 451.0 1028.5Q428 1100 404.0 1177.5Q380 1255 356 1332H376Q378 1271 379.5 1199.5Q381 1128 382.5 1055.0Q384 982 385.5 916.5Q387 851 387 802V0Z" transform="translate(183.62,44.00) scale(0.00464,-0.00464)"/>
  </g>
</svg>